<?xml version="1.0" encoding="utf-8"?>
<!-- Generator: Adobe Illustrator 27.4.0, SVG Export Plug-In . SVG Version: 6.00 Build 0)  -->
<svg version="1.1" id="Layer_1" xmlns="http://www.w3.org/2000/svg" xmlns:xlink="http://www.w3.org/1999/xlink" x="0px" y="0px"
	 viewBox="0 0 64 64" style="enable-background:new 0 0 64 64;" xml:space="preserve">
<style type="text/css">
	.st0{fill:#FFFFFF;}
</style>
<g>
	<path class="st0" d="M50.9,38.9C50.9,38.9,50.9,38.9,50.9,38.9c-0.1,0-0.2,0-0.2,0.1c-0.8,0.4-1.6,0.8-2.4,1.1
		c-2.6,0.9-5.3,1.3-8,1c-1.4-0.1-2.7-0.4-4-0.8c-3.6-1.1-6.6-3.2-9.1-6.1c-1.8-2.2-3.1-4.7-3.8-7.5c-0.4-1.6-0.6-3.3-0.5-4.9
		c0-0.8,0.1-1.5,0.2-2.3c0.2-1.8,0.7-3.5,1.5-5.1c0.2-0.4,0.4-0.9,0.6-1.3c0,0,0,0,0,0c-0.2,0.1-0.4,0.2-0.6,0.3
		c-2.7,1.3-5,3.1-6.9,5.4c-1.5,1.8-2.7,3.9-3.4,6.1c-0.9,2.5-1.2,5.1-1,7.8c0.1,1.1,0.2,2.2,0.5,3.3c0.6,2.5,1.7,4.8,3.2,6.9
		c1.2,1.6,2.5,3,4.1,4.2c1.5,1.2,3.2,2.1,5.1,2.8c2,0.7,4.1,1.1,6.3,1.2c0.7,0,1.5,0,2.2-0.1c1.1-0.1,2.2-0.3,3.3-0.6
		c2.3-0.6,4.4-1.6,6.3-2.9c1.3-0.9,2.5-2,3.5-3.2c1.2-1.4,2.2-2.9,3-4.6C50.8,39.4,50.8,39.2,50.9,38.9C50.9,39,51,38.9,50.9,38.9z"
		/>
	<path class="st0" d="M31.8,19.3c0.9,0.1,1.8,0.3,2.7,0.8c1.1,0.7,1.7,1.7,2,2.9c0.2,0.6,0.2,1.3,0.3,1.9c0,0,0-0.1,0-0.1
		c0.1-0.6,0.1-1.2,0.3-1.8c0.4-1.3,1-2.4,2.3-3c0.9-0.5,1.9-0.7,3-0.8c0.1,0,0.2,0,0.3-0.1c-0.5,0-1-0.1-1.4-0.2
		c-1-0.2-2-0.6-2.8-1.3c-0.9-0.8-1.3-1.9-1.5-3.1c-0.1-0.4-0.1-0.8-0.1-1.1c-0.1,0.7-0.1,1.3-0.3,1.9c-0.3,1.2-1,2.2-2.1,2.9
		c-0.8,0.5-1.7,0.7-2.6,0.8c-0.3,0-0.6,0-0.8,0c0,0,0,0,0,0.1C31.3,19.2,31.6,19.3,31.8,19.3z"/>
	<path class="st0" d="M41.5,30.7c-0.1,0-0.2,0-0.3,0c0.9,0.1,1.8,0.3,2.5,1c0.7,0.7,0.8,1.6,0.9,2.5c0.1-0.9,0.2-1.8,0.9-2.5
		c0.7-0.7,1.5-0.9,2.5-1c-2.4-0.2-3.2-1.5-3.4-3.6c0,0.2,0,0.4-0.1,0.6c-0.1,0.6-0.3,1.2-0.6,1.7c-0.5,0.7-1.2,1-2,1.1
		C41.8,30.7,41.7,30.7,41.5,30.7z"/>
</g>
</svg>
