<?xml version="1.0" encoding="utf-8"?>
<!-- Generator: Adobe Illustrator 27.4.0, SVG Export Plug-In . SVG Version: 6.00 Build 0)  -->
<svg version="1.1" id="Layer_1" xmlns="http://www.w3.org/2000/svg" xmlns:xlink="http://www.w3.org/1999/xlink" x="0px" y="0px"
	 viewBox="0 0 64 64" style="enable-background:new 0 0 64 64;" xml:space="preserve">
<style type="text/css">
	.st0{fill:#9461E3;}
</style>
<g>
	<path class="st0" d="M32,17.9c1.4,0,2.6-1.2,2.6-2.6V8.5C34.6,7.1,33.4,6,32,6c-1.4,0-2.6,1.2-2.6,2.6v6.8
		C29.4,16.8,30.6,17.9,32,17.9z"/>
	<path class="st0" d="M43.8,22.8c0.7,0,1.3-0.3,1.8-0.8l4.8-4.8c0.5-0.5,0.8-1.1,0.8-1.8s-0.3-1.3-0.8-1.8s-1.1-0.8-1.8-0.8
		s-1.3,0.3-1.8,0.8L42,18.4c-0.5,0.5-0.8,1.1-0.8,1.8c0,0.7,0.3,1.3,0.8,1.8C42.5,22.5,43.1,22.8,43.8,22.8z"/>
	<path class="st0" d="M32,18.8c-7.3,0-13.2,5.9-13.2,13.2S24.7,45.2,32,45.2S45.2,39.3,45.2,32S39.3,18.8,32,18.8z M32,40.1
		c-4.4,0-8.1-3.6-8.1-8.1s3.6-8.1,8.1-8.1s8.1,3.6,8.1,8.1S36.4,40.1,32,40.1z"/>
	<path class="st0" d="M18.4,22c0.5,0.5,1.1,0.8,1.8,0.8s1.3-0.3,1.8-0.8c1-1,1-2.6,0-3.6l-4.8-4.8c-0.5-0.5-1.1-0.8-1.8-0.8
		s-1.3,0.3-1.8,0.8s-0.8,1.1-0.8,1.8c0,0.7,0.3,1.3,0.8,1.8L18.4,22z"/>
	<path class="st0" d="M55.5,29.4h-6.8c-1.4,0-2.6,1.2-2.6,2.6c0,1.4,1.2,2.6,2.6,2.6h6.8c1.4,0,2.6-1.2,2.6-2.6S56.9,29.4,55.5,29.4
		z"/>
	<path class="st0" d="M45.6,42c-0.5-0.5-1.1-0.8-1.8-0.8S42.5,41.5,42,42s-0.8,1.1-0.8,1.8s0.3,1.3,0.8,1.8l4.8,4.8
		c0.5,0.5,1.1,0.8,1.8,0.8s1.3-0.3,1.8-0.8s0.8-1.1,0.8-1.8s-0.3-1.3-0.8-1.8L45.6,42z"/>
	<path class="st0" d="M17.9,32c0-1.4-1.2-2.6-2.6-2.6H8.5C7.1,29.4,6,30.6,6,32c0,1.4,1.2,2.6,2.6,2.6h6.8
		C16.8,34.6,17.9,33.4,17.9,32z"/>
	<path class="st0" d="M20.2,41.2c-0.7,0-1.3,0.3-1.8,0.8l-4.8,4.8c-1,1-1,2.6,0,3.6c0.5,0.5,1.1,0.8,1.8,0.8c0.7,0,1.3-0.3,1.8-0.8
		l4.8-4.8c0.5-0.5,0.8-1.1,0.8-1.8S22.5,42.5,22,42S20.9,41.2,20.2,41.2z"/>
	<path class="st0" d="M32,46.1c-1.4,0-2.6,1.2-2.6,2.6v6.8c0,1.4,1.2,2.6,2.6,2.6c1.4,0,2.6-1.2,2.6-2.6v-6.8
		C34.6,47.2,33.4,46.1,32,46.1z"/>
</g>
</svg>
