<?xml version="1.0" encoding="utf-8"?>
<!-- Generator: Adobe Illustrator 27.4.0, SVG Export Plug-In . SVG Version: 6.00 Build 0)  -->
<svg version="1.1" id="Layer_1" xmlns="http://www.w3.org/2000/svg" xmlns:xlink="http://www.w3.org/1999/xlink" x="0px" y="0px"
	 viewBox="0 0 64 64" style="enable-background:new 0 0 64 64;" xml:space="preserve">
<style type="text/css">
	.st0{fill:#00B775;}
	.st1{fill:#FFFFFF;}
</style>
<circle class="st0" cx="32" cy="32" r="32"/>
<g>
	<path class="st1" d="M32,20.6c1.1,0,2.1-1,2.1-2.1V13c0-1.1-1-2-2.1-2c-1.1,0-2.1,1-2.1,2.1v5.5C29.9,19.7,30.9,20.6,32,20.6z"/>
	<path class="st1" d="M41.5,24.6c0.6,0,1-0.2,1.5-0.6l3.9-3.9c0.4-0.4,0.6-0.9,0.6-1.5s-0.2-1-0.6-1.5c-0.4-0.4-0.9-0.6-1.5-0.6
		c-0.6,0-1,0.2-1.5,0.6L40.1,21c-0.4,0.4-0.6,0.9-0.6,1.5c0,0.6,0.2,1,0.6,1.5C40.5,24.3,41,24.6,41.5,24.6z"/>
	<path class="st1" d="M32,21.4c-5.9,0-10.7,4.8-10.7,10.7S26.1,42.7,32,42.7S42.7,37.9,42.7,32S37.9,21.4,32,21.4z M32,38.6
		c-3.6,0-6.5-2.9-6.5-6.5s2.9-6.5,6.5-6.5c3.6,0,6.5,2.9,6.5,6.5S35.6,38.6,32,38.6z"/>
	<path class="st1" d="M21,23.9c0.4,0.4,0.9,0.6,1.5,0.6c0.6,0,1-0.2,1.5-0.6c0.8-0.8,0.8-2.1,0-2.9l-3.9-3.9
		c-0.4-0.4-0.9-0.6-1.5-0.6c-0.6,0-1,0.2-1.5,0.6c-0.4,0.4-0.6,0.9-0.6,1.5c0,0.6,0.2,1,0.6,1.5L21,23.9z"/>
	<path class="st1" d="M51,29.9h-5.5c-1.1,0-2.1,1-2.1,2.1c0,1.1,1,2.1,2.1,2.1H51c1.1,0,2.1-1,2.1-2.1S52.1,29.9,51,29.9z"/>
	<path class="st1" d="M43,40.1c-0.4-0.4-0.9-0.6-1.5-0.6c-0.6,0-1,0.2-1.5,0.6c-0.4,0.4-0.6,0.9-0.6,1.5s0.2,1,0.6,1.5l3.9,3.9
		c0.4,0.4,0.9,0.6,1.5,0.6c0.6,0,1-0.2,1.5-0.6c0.4-0.4,0.6-0.9,0.6-1.5c0-0.6-0.2-1-0.6-1.5L43,40.1z"/>
	<path class="st1" d="M20.6,32c0-1.1-1-2.1-2.1-2.1H13c-1.1,0-2,1-2,2.1c0,1.1,1,2.1,2.1,2.1h5.5C19.7,34.1,20.6,33.1,20.6,32z"/>
	<path class="st1" d="M22.5,39.4c-0.6,0-1,0.2-1.5,0.6L17.2,44c-0.8,0.8-0.8,2.1,0,2.9c0.4,0.4,0.9,0.6,1.5,0.6c0.6,0,1-0.2,1.5-0.6
		l3.9-3.9c0.4-0.4,0.6-0.9,0.6-1.5s-0.2-1-0.6-1.5C23.5,39.7,23,39.4,22.5,39.4z"/>
	<path class="st1" d="M32,43.4c-1.1,0-2.1,1-2.1,2.1V51c0,1.1,1,2.1,2.1,2.1c1.1,0,2.1-1,2.1-2.1v-5.5C34.1,44.3,33.1,43.4,32,43.4z
		"/>
</g>
</svg>
