<?xml version="1.0" encoding="utf-8"?>
<!-- Generator: Adobe Illustrator 27.2.0, SVG Export Plug-In . SVG Version: 6.00 Build 0)  -->
<svg version="1.1" xmlns="http://www.w3.org/2000/svg" xmlns:xlink="http://www.w3.org/1999/xlink" x="0px" y="0px"
	 viewBox="0 0 160 53" style="enable-background:new 0 0 160 53;" xml:space="preserve">
<style type="text/css">
	.st0{display:none;stroke:#FFFFFF;stroke-miterlimit:10;}
	.st1{fill-rule:evenodd;clip-rule:evenodd;fill:#348AA7;}
	.st2{fill-rule:evenodd;clip-rule:evenodd;fill:#55CF98;}
	.st3{fill-rule:evenodd;clip-rule:evenodd;fill:#1A6882;}
	.st4{fill-rule:evenodd;clip-rule:evenodd;fill:#76E8B5;}
	.st5{fill-rule:evenodd;clip-rule:evenodd;fill:#12556B;}
	.st6{fill-rule:evenodd;clip-rule:evenodd;fill:#BCE784;}
	.st7{fill-rule:evenodd;clip-rule:evenodd;fill:#48B081;}
	.st8{fill-rule:evenodd;clip-rule:evenodd;fill:#57C795;}
	.st9{fill-rule:evenodd;clip-rule:evenodd;fill:#0D3E4F;}
	.st10{fill:#FFFFFF;}
	.st11{display:none;}
	.st12{display:inline;fill:#31CB9E;}
	.st13{display:inline;fill:#FFFFFF;}
</style>
<g id="Layer_2">
	<rect x="-18.5" y="-8.6" class="st0" width="192.7" height="80.5"/>
	<g>
		<g>
			<g>
				<polygon class="st1" points="8.4,22 8.4,12.9 0.6,17.5 				"/>
				<polygon class="st2" points="16.2,17.5 8.4,22 8.4,31 16.2,35.5 				"/>
				<polygon class="st3" points="0.6,17.5 8.4,22 8.4,31 0.6,35.5 				"/>
				<polygon class="st4" points="8.4,12.9 16.2,17.5 8.4,22 				"/>
				<polygon class="st5" points="0.6,35.5 8.4,31 16.2,35.5 16.2,44.6 				"/>
				<polygon class="st6" points="24.1,12.9 16.2,17.5 8.4,12.9 16.2,8.4 				"/>
				<polygon class="st7" points="16.2,17.5 24.1,22 24.1,31 16.2,35.5 				"/>
				<polygon class="st3" points="31.9,17.5 24.1,22 24.1,31 31.9,35.5 				"/>
				<polygon class="st8" points="24.1,12.9 16.2,17.5 24.1,22 				"/>
				<polygon class="st9" points="31.9,35.5 24.1,31 16.2,35.5 16.2,44.6 				"/>
				<polygon class="st1" points="24.1,22 24.1,12.9 31.9,17.5 				"/>
			</g>
		</g>
		<g>
			<path class="st10" d="M44.7,34.6c-1-0.5-1.7-1.1-2.3-1.9s-0.8-1.8-0.8-2.8c0-0.2,0.1-0.2,0.2-0.2h1.6c0.2,0,0.2,0.1,0.2,0.2
				c0,1,0.4,1.8,1.2,2.5c0.8,0.7,1.8,1,3,1c1.4,0,2.4-0.3,3.1-0.8c0.7-0.5,1.1-1.3,1.1-2.4c0-0.8-0.4-1.4-1.1-1.8s-1.9-0.8-3.3-1.2
				c-1.9-0.5-3.3-1.1-4.2-1.8c-1-0.7-1.4-1.8-1.4-3.1c0-1,0.3-1.8,0.8-2.5c0.5-0.7,1.2-1.2,2.1-1.6c0.9-0.4,1.8-0.5,2.9-0.5
				c1.2,0,2.2,0.2,3.1,0.7c0.9,0.4,1.5,1,2,1.8c0.5,0.7,0.7,1.5,0.8,2.4c0,0.2-0.1,0.2-0.2,0.2h-1.6c-0.2,0-0.2-0.1-0.2-0.2
				c0-0.8-0.4-1.5-1.2-2c-0.7-0.5-1.6-0.8-2.7-0.8c-1.1,0-2,0.2-2.7,0.7c-0.7,0.4-1,1.1-1,1.8c0,0.8,0.4,1.5,1.1,1.9
				c0.7,0.4,1.9,0.9,3.4,1.3c1.8,0.5,3.2,1.1,4.1,1.8c1,0.7,1.5,1.7,1.5,2.9c0,1.7-0.6,3-1.7,3.9s-2.7,1.3-4.6,1.3
				C46.7,35.3,45.6,35.1,44.7,34.6z"/>
			<path class="st10" d="M58.6,34.5c-0.9-0.5-1.5-1.3-2-2.3s-0.7-2.1-0.7-3.3s0.2-2.3,0.7-3.3c0.5-1,1.2-1.7,2-2.3
				c0.9-0.5,1.8-0.8,2.9-0.8c0.9,0,1.6,0.1,2.2,0.4c0.6,0.3,1.2,0.7,1.7,1.2V23c0-0.2,0.1-0.2,0.2-0.2h1.4c0.2,0,0.2,0.1,0.2,0.2
				v11.8c0,0.2-0.1,0.2-0.2,0.2h-1.4c-0.2,0-0.2-0.1-0.2-0.2v-1.1c-0.9,1-2.3,1.5-3.9,1.5C60.5,35.3,59.5,35,58.6,34.5z M64.7,32.2
				c0.7-0.8,1-1.9,1-3.3c0-1.4-0.3-2.5-1-3.3c-0.7-0.8-1.6-1.3-2.9-1.3c-1.2,0-2.2,0.4-2.9,1.3c-0.7,0.8-1,1.9-1,3.3
				c0,1.4,0.3,2.5,1,3.3c0.7,0.8,1.6,1.3,2.9,1.3C63,33.5,64,33.1,64.7,32.2z"/>
			<path class="st10" d="M70.5,34.8V18.2c0-0.2,0.1-0.2,0.2-0.2h1.4c0.2,0,0.2,0.1,0.2,0.2V28l5.4-5c0.1-0.1,0.3-0.2,0.4-0.2h2
				c0.1,0,0.2,0.1,0.2,0.2c0,0.1,0,0.1-0.1,0.2l-4.4,4.1l4.9,7.4c0.1,0.1,0.1,0.2,0.1,0.2c0,0.1-0.1,0.2-0.2,0.2H79
				c-0.2,0-0.3-0.1-0.4-0.2l-4.2-6.2l-2,1.9v4.3c0,0.2-0.1,0.2-0.2,0.2h-1.4C70.6,35.1,70.5,35,70.5,34.8z"/>
			<path class="st10" d="M84.1,34.5c-0.9-0.5-1.5-1.3-2-2.3s-0.7-2.1-0.7-3.3s0.2-2.3,0.7-3.3c0.5-1,1.2-1.7,2-2.3
				c0.9-0.5,1.8-0.8,2.9-0.8c0.9,0,1.6,0.1,2.2,0.4c0.6,0.3,1.2,0.7,1.7,1.2V23c0-0.2,0.1-0.2,0.2-0.2h1.4c0.2,0,0.2,0.1,0.2,0.2
				v11.8c0,0.2-0.1,0.2-0.2,0.2h-1.4c-0.2,0-0.2-0.1-0.2-0.2v-1.1c-0.9,1-2.3,1.5-3.9,1.5C86,35.3,85,35,84.1,34.5z M90.2,32.2
				c0.7-0.8,1-1.9,1-3.3c0-1.4-0.3-2.5-1-3.3c-0.7-0.8-1.6-1.3-2.9-1.3c-1.2,0-2.2,0.4-2.9,1.3c-0.7,0.8-1,1.9-1,3.3
				c0,1.4,0.3,2.5,1,3.3s1.6,1.3,2.9,1.3C88.5,33.5,89.5,33.1,90.2,32.2z"/>
			<path class="st10" d="M95.7,20.3v-2.1c0-0.2,0.1-0.2,0.2-0.2h2.1c0.2,0,0.2,0.1,0.2,0.2v2.1c0,0.2-0.1,0.2-0.2,0.2H96
				C95.8,20.5,95.7,20.4,95.7,20.3z M96.1,34.8V23c0-0.2,0.1-0.2,0.2-0.2h1.4c0.2,0,0.2,0.1,0.2,0.2v11.8c0,0.2-0.1,0.2-0.2,0.2
				h-1.4C96.2,35.1,96.1,35,96.1,34.8z"/>
			<path class="st10" d="M110.6,35c0,0-0.1-0.1-0.1-0.2l-5.9-16.6c0-0.1,0-0.2,0-0.2c0-0.1,0.1-0.1,0.2-0.1h1.9
				c0.1,0,0.2,0.1,0.3,0.2l5,14.4l5-14.4c0-0.2,0.1-0.2,0.3-0.2h1.9c0.1,0,0.2,0,0.2,0.1c0,0,0,0.1,0,0.2l-5.9,16.6
				c0,0.1-0.1,0.2-0.1,0.2c0,0-0.1,0-0.2,0h-2.3C110.7,35.1,110.6,35.1,110.6,35z"/>
			<path class="st10" d="M121.4,34.5c-0.9-0.5-1.5-1.3-2-2.3s-0.7-2.1-0.7-3.3s0.2-2.3,0.7-3.3c0.5-1,1.2-1.7,2-2.3
				c0.9-0.5,1.8-0.8,2.9-0.8c0.9,0,1.6,0.1,2.2,0.4c0.6,0.3,1.2,0.7,1.7,1.2V23c0-0.2,0.1-0.2,0.2-0.2h1.4c0.2,0,0.2,0.1,0.2,0.2
				v11.8c0,0.2-0.1,0.2-0.2,0.2h-1.4c-0.2,0-0.2-0.1-0.2-0.2v-1.1c-0.9,1-2.3,1.5-3.9,1.5C123.3,35.3,122.3,35,121.4,34.5z
				 M127.5,32.2c0.7-0.8,1-1.9,1-3.3c0-1.4-0.3-2.5-1-3.3c-0.7-0.8-1.6-1.3-2.9-1.3c-1.2,0-2.2,0.4-2.9,1.3c-0.7,0.8-1,1.9-1,3.3
				c0,1.4,0.3,2.5,1,3.3s1.6,1.3,2.9,1.3C125.8,33.5,126.8,33.1,127.5,32.2z"/>
			<path class="st10" d="M134.4,34.1c-0.8-0.8-1.2-1.9-1.2-3.3V23c0-0.2,0.1-0.2,0.2-0.2h1.4c0.2,0,0.2,0.1,0.2,0.2v7.5
				c0,1,0.2,1.7,0.7,2.2c0.5,0.5,1.2,0.7,2.1,0.7c1.1,0,2-0.4,2.6-1.2c0.7-0.8,1-1.9,1-3.3v-6c0-0.2,0.1-0.2,0.2-0.2h1.4
				c0.2,0,0.2,0.1,0.2,0.2v11.8c0,0.2-0.1,0.2-0.2,0.2h-1.4c-0.2,0-0.2-0.1-0.2-0.2v-1.4c-0.5,0.6-1.1,1.1-1.8,1.4s-1.5,0.5-2.3,0.5
				C136.2,35.3,135.2,34.9,134.4,34.1z"/>
			<path class="st10" d="M146.7,34.8V18.2c0-0.2,0.1-0.2,0.2-0.2h1.4c0.2,0,0.2,0.1,0.2,0.2v16.6c0,0.2-0.1,0.2-0.2,0.2h-1.4
				C146.8,35.1,146.7,35,146.7,34.8z"/>
			<path class="st10" d="M153.7,34.3c-0.7-0.7-1-1.6-1-2.7v-7h-2.2c-0.2,0-0.2-0.1-0.2-0.2V23c0-0.2,0.1-0.2,0.2-0.2h2.2v-3.5
				c0-0.2,0.1-0.2,0.2-0.2h1.4c0.2,0,0.2,0.1,0.2,0.2v3.5h4.1c0.2,0,0.2,0.1,0.2,0.2v1.3c0,0.2-0.1,0.2-0.2,0.2h-4.1v6.8
				c0,1.4,0.6,2.1,1.9,2.1c0.5,0,0.9,0,1.2-0.1c0.3,0,0.7-0.1,1.1-0.3c0.1,0,0.2-0.1,0.2-0.1c0.1,0,0.2,0.1,0.2,0.2v1.2
				c0,0.1,0,0.2,0,0.2s-0.1,0.1-0.2,0.1c-0.7,0.3-1.6,0.4-2.6,0.4C155.3,35.3,154.4,35,153.7,34.3z"/>
		</g>
	</g>
</g>
<g id="Layer_1" class="st11">
	<path class="st12" d="M15.8,26.5l19.7,11.4c0.2,0.1,0.3,0.1,0.5,0.1c0.2,0,0.4,0,0.5-0.1c0.2-0.1,0.3-0.2,0.4-0.4
		c0.1-0.2,0.1-0.3,0.1-0.5l0-20.9c0-0.2-0.1-0.4-0.1-0.5c-0.1-0.2-0.2-0.3-0.4-0.4C36.4,15.1,36.2,15,36,15c-0.2,0-0.4,0-0.5,0.1
		L15.8,26.5z"/>
	<path class="st12" d="M34.3,10.3l-13.1-10C21.1,0.1,21,0,20.8,0c-0.2,0-0.3,0-0.5,0.1c-0.2,0.1-0.3,0.2-0.4,0.3
		c-0.1,0.1-0.2,0.3-0.2,0.5l-4.8,22.4L34.2,12c0.1-0.1,0.3-0.2,0.4-0.4c0.1-0.1,0.1-0.3,0.2-0.5c0-0.2,0-0.3-0.1-0.5
		C34.6,10.5,34.5,10.4,34.3,10.3z"/>
	<path class="st12" d="M21.3,52.8l13.1-10.1c0.1-0.1,0.2-0.2,0.3-0.4c0.1-0.2,0.1-0.3,0.1-0.5c0-0.2-0.1-0.3-0.2-0.5
		c-0.1-0.1-0.2-0.3-0.4-0.4L14.9,29.8l4.8,22.4c0,0.2,0.1,0.3,0.2,0.5c0.1,0.1,0.3,0.2,0.4,0.3c0.2,0.1,0.3,0.1,0.5,0.1
		C21,53,21.1,52.9,21.3,52.8z"/>
	<path class="st12" d="M10.8,26.5l5.2-24.1c0-0.2,0-0.4-0.1-0.6c-0.1-0.2-0.2-0.4-0.4-0.5c-0.2-0.1-0.4-0.2-0.6-0.2
		c-0.2,0-0.4,0.1-0.6,0.2L1.1,11.5c-0.3,0.3-0.6,0.6-0.8,1C0.1,12.8,0,13.3,0,13.7l0,25.7c0,0.4,0.1,0.8,0.3,1.2
		c0.2,0.4,0.5,0.7,0.8,1l13.2,10.1c0.2,0.1,0.4,0.2,0.6,0.2c0.2,0,0.4,0,0.6-0.2c0.2-0.1,0.3-0.3,0.4-0.5c0.1-0.2,0.1-0.4,0.1-0.6
		L10.8,26.5z"/>
	<path class="st13" d="M113.4,19.5c0.9,0,1.9,0.2,2.7,0.7c0.8,0.5,1.5,1.1,2,1.9l-1.6,1.3c-0.3-0.5-0.8-1-1.3-1.3
		c-0.5-0.3-1.1-0.5-1.7-0.5c-0.5,0-1.1,0.1-1.5,0.4c-0.2,0.1-0.4,0.3-0.5,0.6c-0.1,0.2-0.2,0.5-0.2,0.8c0,0.2,0,0.5,0.2,0.7
		c0.1,0.2,0.2,0.4,0.4,0.5c0.2,0.2,0.4,0.3,0.6,0.4c0.2,0.1,0.5,0.3,0.8,0.4l1.6,0.8c0.5,0.2,1,0.5,1.5,0.8c0.4,0.3,0.8,0.6,1.1,0.9
		c0.3,0.3,0.5,0.7,0.7,1.1c0.2,0.4,0.2,0.9,0.2,1.4c0,0.6-0.1,1.2-0.4,1.8c-0.2,0.5-0.6,1-1,1.3c-0.5,0.4-1,0.7-1.6,0.8
		c-0.6,0.2-1.3,0.3-1.9,0.3c-1.1,0-2.3-0.3-3.2-0.9c-0.9-0.6-1.7-1.4-2.2-2.3l1.7-1.3c0.2,0.3,0.4,0.6,0.7,0.9
		c0.3,0.3,0.5,0.5,0.8,0.7c0.3,0.2,0.7,0.4,1,0.5c0.4,0.1,0.8,0.2,1.2,0.2c0.6,0,1.3-0.2,1.8-0.5c0.2-0.2,0.4-0.4,0.5-0.7
		s0.2-0.5,0.2-0.8c0-0.3,0-0.5-0.2-0.7c-0.1-0.2-0.3-0.4-0.4-0.6c-0.2-0.2-0.4-0.3-0.7-0.5c-0.3-0.1-0.5-0.3-0.9-0.4l-1.6-0.8
		c-0.5-0.2-0.9-0.4-1.3-0.7c-0.4-0.2-0.8-0.5-1.1-0.9c-0.3-0.3-0.6-0.7-0.7-1.1c-0.2-0.4-0.3-0.9-0.3-1.4c0-0.6,0.1-1.1,0.4-1.6
		c0.2-0.5,0.6-0.9,1-1.3c0.4-0.4,0.9-0.6,1.5-0.8C112.2,19.6,112.8,19.5,113.4,19.5z"/>
	<path class="st13" d="M131.3,30.5l2.8-7l2.4,0l-4.8,11.1H131l-3.4-7.3l-3.4,7.3h-0.8l-4.8-11.1l2.5,0l2.8,7.1l3.3-7.4h0.8
		L131.3,30.5z"/>
	<path class="st13" d="M142,23.2c0.6,0,1.2,0.1,1.8,0.3c0.5,0.2,1,0.5,1.4,0.9c0.4,0.4,0.7,0.9,0.9,1.4c0.2,0.6,0.3,1.3,0.3,2l0,6.6
		l-2.2,0v-1.2c-0.4,0.5-0.9,0.8-1.5,1.1c-0.6,0.3-1.3,0.4-2,0.4c-0.5,0-1.1-0.1-1.6-0.2c-0.4-0.1-0.8-0.4-1.2-0.6
		c-0.3-0.3-0.6-0.6-0.8-1c-0.2-0.4-0.3-0.8-0.3-1.3c0-0.4,0.1-0.9,0.3-1.3c0.2-0.4,0.5-0.7,0.8-1c0.9-0.6,1.9-0.9,2.9-0.8l3.1,0
		l0-0.7c0-0.3,0-0.6-0.1-0.9c-0.1-0.3-0.3-0.6-0.5-0.8c-0.2-0.2-0.5-0.4-0.8-0.5c-0.3-0.1-0.6-0.1-0.9-0.1c-0.6,0-1.1,0.1-1.7,0.4
		c-0.5,0.3-1,0.7-1.4,1.2l-1.3-1.4c0.5-0.8,1.2-1.4,2-1.8C140.2,23.4,141.1,23.2,142,23.2z M141.3,32.8c0.4,0,0.7-0.1,1.1-0.2
		c0.3-0.1,0.6-0.3,0.9-0.5c0.3-0.2,0.5-0.5,0.6-0.8c0.1-0.3,0.2-0.7,0.2-1V30l-2.8,0c-0.5,0-1,0.1-1.4,0.3c-0.2,0.1-0.3,0.3-0.4,0.4
		c-0.1,0.2-0.1,0.4-0.1,0.6c0,0.2,0,0.4,0.1,0.6c0.1,0.2,0.2,0.3,0.4,0.5C140.3,32.7,140.8,32.8,141.3,32.8L141.3,32.8z"/>
	<path class="st13" d="M154.7,23.2c0.7,0,1.5,0.1,2.1,0.4c0.6,0.3,1.2,0.7,1.7,1.2c0.5,0.5,0.9,1.1,1.1,1.8c0.3,0.7,0.4,1.5,0.4,2.2
		c0,0.8-0.1,1.5-0.4,2.3c-0.2,0.7-0.6,1.3-1.1,1.8c-0.5,0.5-1.1,0.9-1.7,1.2c-0.7,0.3-1.4,0.4-2.1,0.4c-0.7,0-1.4-0.1-2.1-0.4
		c-0.6-0.3-1.1-0.6-1.6-1.2l0,5.3l-2.3,0l0-14.9l2.1,0l0,1.6c0.4-0.6,0.9-1,1.6-1.3C153.2,23.4,153.9,23.2,154.7,23.2z M154.3,25.3
		c-0.4,0-0.8,0.1-1.2,0.2c-0.4,0.1-0.7,0.4-1,0.6c-0.3,0.3-0.6,0.7-0.7,1.1c-0.2,0.5-0.3,1-0.3,1.6c0,0.5,0.1,1.1,0.3,1.6
		c0.2,0.4,0.4,0.8,0.7,1.1c0.3,0.3,0.7,0.5,1,0.7c0.4,0.1,0.8,0.2,1.2,0.2c0.4,0,0.9-0.1,1.3-0.3c0.4-0.2,0.8-0.4,1.1-0.7
		c0.3-0.3,0.5-0.7,0.7-1.1c0.3-0.9,0.3-2,0-2.9c-0.2-0.4-0.4-0.8-0.7-1.1c-0.3-0.3-0.7-0.6-1-0.7C155.2,25.4,154.8,25.3,154.3,25.3
		L154.3,25.3z"/>
	<path class="st13" d="M54.3,34.3l-2.3,0l0-14.6l2.3,0L54.3,34.3z M57.3,26.5l6.7,7.8l-2.9,0l-6.7-7.8l6.1-6.8l2.9,0L57.3,26.5z"/>
	<path class="st13" d="M69.1,35.6c-0.3,0.9-0.9,1.7-1.6,2.3c-0.7,0.5-1.5,0.7-2.3,0.7c-0.3,0-0.6,0-0.9-0.1c-0.3,0-0.6-0.1-0.9-0.2
		v-2c0.3,0,0.5,0.1,0.7,0.1c0.2,0,0.4,0,0.6,0c0.5,0,0.9-0.1,1.3-0.3c0.5-0.3,0.8-0.8,1-1.3l0.4-1l-4.3-10.4l2.5,0l3.1,7.9l3.2-7.9
		l2.5,0L69.1,35.6z"/>
	<path class="st13" d="M77.9,24.8c0.4-0.5,1-0.9,1.6-1.2c0.6-0.3,1.4-0.4,2.1-0.4c0.7,0,1.4,0.1,2.1,0.4c0.7,0.3,1.2,0.7,1.7,1.2
		c0.5,0.5,0.9,1.1,1.1,1.8c0.3,0.7,0.4,1.5,0.4,2.3c0,0.8-0.1,1.5-0.4,2.2c-0.3,0.7-0.6,1.3-1.1,1.8c-0.5,0.5-1,0.9-1.7,1.2
		c-0.7,0.3-1.4,0.4-2.1,0.4c-0.8,0-1.5-0.1-2.2-0.5c-0.6-0.3-1.2-0.7-1.6-1.3v1.6l-2.1,0l0-16.6l2.3,0L77.9,24.8z M81.2,25.3
		c-0.4,0-0.8,0.1-1.2,0.2c-0.4,0.1-0.7,0.4-1,0.7c-0.3,0.3-0.6,0.7-0.7,1.1c-0.2,0.5-0.3,1.1-0.3,1.6c0,0.5,0.1,1.1,0.3,1.6
		c0.2,0.4,0.4,0.8,0.7,1.1c0.3,0.3,0.7,0.5,1,0.6c0.4,0.1,0.8,0.2,1.2,0.2c0.5,0,0.9-0.1,1.3-0.3c0.4-0.2,0.8-0.4,1-0.7
		c0.3-0.3,0.5-0.7,0.7-1.1c0.3-0.9,0.3-2,0-2.9c-0.2-0.4-0.4-0.8-0.7-1.1c-0.3-0.3-0.7-0.6-1.1-0.7C82.1,25.4,81.6,25.3,81.2,25.3
		L81.2,25.3z"/>
	<path class="st13" d="M94,23.2c0.7,0,1.4,0.1,2,0.4c0.6,0.2,1.1,0.6,1.6,1c0.5,0.5,0.8,1,1,1.6c0.3,0.6,0.4,1.3,0.4,2
		c0,0.3,0,0.6-0.1,0.8c0,0.2-0.1,0.4-0.1,0.6l-8.1,0c0.1,0.8,0.5,1.6,1.2,2.1c0.7,0.5,1.5,0.8,2.3,0.8c0.6,0,1.2-0.1,1.7-0.3
		c0.5-0.2,1-0.6,1.4-0.9l1.1,1.6c-0.6,0.5-1.2,1-1.9,1.3c-0.8,0.3-1.6,0.5-2.4,0.5c-0.8,0-1.6-0.1-2.3-0.4c-0.7-0.3-1.3-0.7-1.8-1.2
		c-0.5-0.5-0.9-1.1-1.2-1.8c-0.3-0.7-0.4-1.5-0.4-2.2c0-0.8,0.1-1.5,0.4-2.2c0.3-0.7,0.7-1.3,1.2-1.8c0.5-0.5,1.1-0.9,1.8-1.2
		C92.5,23.4,93.2,23.2,94,23.2z M93.9,25.2c-0.7,0-1.5,0.2-2,0.7c-0.6,0.5-1,1.2-1.1,1.9l5.9,0c0-0.4-0.1-0.7-0.2-1.1
		c-0.1-0.3-0.4-0.6-0.6-0.9C95.3,25.4,94.6,25.2,93.9,25.2z"/>
	<path class="st13" d="M106.5,23.3c0.2,0,0.3,0,0.5,0c0.1,0,0.3,0,0.4,0.1l0,2.1l-0.7,0c-0.4,0-0.8,0.1-1.2,0.2
		c-0.4,0.1-0.7,0.3-1,0.6c-0.3,0.3-0.5,0.6-0.7,0.9c-0.2,0.4-0.3,0.9-0.3,1.3l0,5.8l-2.3,0l0-10.9l2.1,0l0,1.5
		c0.4-0.5,0.8-0.9,1.4-1.2C105.3,23.5,105.9,23.3,106.5,23.3z"/>
</g>
</svg>
