<?xml version="1.0" encoding="utf-8"?>
<!-- Generator: Adobe Illustrator 27.4.0, SVG Export Plug-In . SVG Version: 6.00 Build 0)  -->
<svg version="1.1" id="katman_1" xmlns="http://www.w3.org/2000/svg" xmlns:xlink="http://www.w3.org/1999/xlink" x="0px" y="0px"
	 viewBox="0 0 48 48" style="enable-background:new 0 0 48 48;" xml:space="preserve">
<style type="text/css">
	.st0{fill:#1D1E23;}
	.st1{fill:#FFFFFF;}
</style>
<g>
	<path class="st0" d="M34.6,47.5H13.4c-7.3,0-13.2-5.9-13.2-13.2V13.2C0.2,5.9,6.1,0,13.4,0h21.1c7.3,0,13.2,5.9,13.2,13.2v21.1
		C47.7,41.6,41.8,47.5,34.6,47.5z"/>
	<g>
		<g>
			<path class="st1" d="M42.1,23.9c0-4.2-3.4-7.5-7.5-7.5H27h0c-4,0-7.3,3.1-7.5,7.1c0,0.1,0,0.3,0,0.4c0,0,0,0.1,0,0.1c0,0,0,0,0,0
				c0,0,0,0.1,0,0.1c0,0,0,0,0,0.1c0,0,0,0,0,0c0,0,0,0.1,0,0.1c0,0.1,0.1,0.3,0.2,0.4c0.1,0.1,0.1,0.2,0.2,0.2c0,0,0,0,0,0.1
				c0,0,0.1,0.1,0.1,0.1c0.1,0.1,0.2,0.2,0.4,0.2c0.1,0,0.1,0.1,0.2,0.1c0,0,0,0,0.1,0c0.1,0,0.2,0,0.3,0c0.8,0,1.5-0.6,1.5-1.4
				c0,0,0,0,0-0.1c0,0,0,0,0,0c0-2.5,2.1-4.5,4.6-4.5h1.4H33h1h0.6c2.5,0,4.5,2,4.5,4.5s-2,4.5-4.5,4.5H30c-0.8,0-1.5,0.7-1.5,1.5
				s0.7,1.5,1.5,1.5h4.5c0.3,0,0.7,0,1-0.1l3,3c0.2,0.2,0.5,0.1,0.5-0.2V30l0,0C40.9,28.6,42.1,26.4,42.1,23.9z"/>
			<path class="st1" d="M28.5,23.8C28.5,23.8,28.5,23.8,28.5,23.8C28.5,23.7,28.5,23.7,28.5,23.8c0-0.1,0-0.2,0-0.2
				c0-0.1-0.1-0.3-0.2-0.4c-0.1-0.1-0.1-0.2-0.2-0.2c0,0,0,0,0-0.1c-0.1-0.1-0.1-0.1-0.2-0.1c0,0-0.1-0.1-0.1-0.1c0,0-0.1,0-0.1-0.1
				c-0.1,0-0.2-0.1-0.3-0.1c0,0-0.1,0-0.1,0c-0.1,0-0.2,0-0.2,0h0c-0.8,0-1.5,0.7-1.5,1.5c0,0,0,0,0,0c0,2.5-2.1,4.5-4.6,4.5h-7.4
				c-2.5,0-4.5-2-4.5-4.5s2-4.5,4.5-4.5H18c0.8,0,1.5-0.7,1.5-1.5c0-0.8-0.7-1.5-1.5-1.5h-4.5c-4.2,0-7.5,3.4-7.5,7.5
				s3.4,7.5,7.5,7.5H21c4,0,7.3-3.1,7.5-7.1c0-0.1,0-0.3,0-0.4c0,0,0-0.1,0-0.1C28.5,23.9,28.5,23.8,28.5,23.8z"/>
		</g>
	</g>
</g>
<g>
</g>
<g>
</g>
<g>
</g>
<g>
</g>
<g>
</g>
<g>
</g>
<g>
</g>
<g>
</g>
<g>
</g>
<g>
</g>
<g>
</g>
<g>
</g>
<g>
</g>
<g>
</g>
<g>
</g>
</svg>
