<?xml version="1.0" encoding="utf-8"?>
<!-- Generator: Adobe Illustrator 27.0.0, SVG Export Plug-In . SVG Version: 6.00 Build 0)  -->
<svg version="1.1" id="Layer_1" xmlns="http://www.w3.org/2000/svg" xmlns:xlink="http://www.w3.org/1999/xlink" x="0px" y="0px"
	 viewBox="0 0 48 48" style="enable-background:new 0 0 48 48;" xml:space="preserve">
<style type="text/css">
	.st0{display:none;fill:#1C1E24;}
	.st1{fill:#1FFF8F;}
	.st2{fill:#1C1E24;}
	
		.st3{fill-rule:evenodd;clip-rule:evenodd;fill:none;stroke:#1FFF8F;stroke-width:1.0447;stroke-linecap:round;stroke-linejoin:round;stroke-miterlimit:10;}
</style>
<rect x="-725.4" y="-294.5" class="st0" width="1961.8" height="609.9"/>
<g>
	<g>
		<path class="st1" d="M39.2,48H8.8C3.9,48,0,44.1,0,39.2V8.8C0,3.9,3.9,0,8.8,0h30.4C44.1,0,48,3.9,48,8.8v30.4
			C48,44.1,44.1,48,39.2,48z"/>
		<g>
			<path class="st2" d="M7.6,35.4l-0.5-0.8c-2-3.2-3.1-6.8-3-10.6c0-11,9-19.9,20-19.9c5.3,0,10.3,2.1,14.1,5.8
				c3.8,3.8,5.8,8.8,5.8,14.1c0,11-9,19.9-19.9,19.9h0c-3.6,0-7.1-1-10.2-2.8l-0.7-0.4l-7.5,2L7.6,35.4z"/>
			<g>
				<g>
					<polygon class="st3" points="17.9,20.5 17.9,13.5 11.8,17 					"/>
					<polygon class="st3" points="24,17 17.9,20.5 17.9,27.5 24,31 					"/>
					<polygon class="st3" points="11.8,17 17.9,20.5 17.9,27.5 11.8,31 					"/>
					<polygon class="st3" points="17.9,13.5 24,17 17.9,20.5 					"/>
					<polygon class="st3" points="11.8,31 17.9,27.5 24,31 24,38.1 					"/>
					<polygon class="st3" points="30.1,13.5 24,17 17.9,13.5 24,9.9 					"/>
					<polygon class="st3" points="24,17 30.1,20.5 30.1,27.5 24,31 					"/>
					<polygon class="st3" points="36.2,17 30.1,20.5 30.1,27.5 36.2,31 					"/>
					<polygon class="st3" points="30.1,13.5 24,17 30.1,20.5 					"/>
					<polygon class="st3" points="36.2,31 30.1,27.5 24,31 24,38.1 					"/>
					<polygon class="st3" points="30.1,20.5 30.1,13.5 36.2,17 					"/>
				</g>
			</g>
		</g>
	</g>
</g>
</svg>
