<?xml version="1.0" encoding="utf-8"?>
<!-- Generator: Adobe Illustrator 27.0.0, SVG Export Plug-In . SVG Version: 6.00 Build 0)  -->
<svg version="1.1" id="Layer_1" xmlns="http://www.w3.org/2000/svg" xmlns:xlink="http://www.w3.org/1999/xlink" x="0px" y="0px"
	 viewBox="0 0 1305.9 337.1" style="enable-background:new 0 0 1305.9 337.1;" xml:space="preserve">
<style type="text/css">
	.st0{fill:#1FFF8F;}
	.st1{fill:#1C1E24;}
	.st2{fill:#FFFFFF;}
</style>
<g>
	<g>
		<path class="st0" d="M264.5,321.8H69.1c-31.1,0-56.4-25.2-56.4-56.4V69.9c0-31.1,25.2-56.4,56.4-56.4h195.5
			c31.1,0,56.4,25.2,56.4,56.4v195.5C320.9,296.6,295.7,321.8,264.5,321.8z"/>
		<g>
			<path class="st1" d="M61.4,240.6l-3-4.8c-12.8-20.4-19.6-43.9-19.6-68.1c0-70.6,57.5-128,128.1-128c34.2,0,66.4,13.3,90.6,37.5
				c24.2,24.2,37.5,56.4,37.5,90.6c0,70.6-57.5,128-128.1,128l0,0c-23,0-45.5-6.2-65.2-17.9l-4.7-2.8l-48.5,12.7L61.4,240.6z"/>
			<g>
				<g>
					<g>
						<path class="st0" d="M127.7,148.5c-0.6,0-1.2-0.1-1.7-0.4l-39-22.5c-1-0.6-1.7-1.7-1.7-2.9c0-1.2,0.6-2.3,1.7-2.9l39-22.6
							c1-0.6,2.3-0.6,3.4,0c1,0.6,1.7,1.7,1.7,2.9v45.1c0,1.2-0.6,2.3-1.7,2.9C128.9,148.3,128.3,148.5,127.7,148.5z M95.4,122.6
							l28.9,16.7v-33.5L95.4,122.6z"/>
					</g>
					<g>
						<path class="st0" d="M166.8,216.2c-0.6,0-1.2-0.2-1.7-0.5L126,193.1c-1-0.6-1.7-1.7-1.7-2.9v-45.1c0-1.2,0.6-2.3,1.7-2.9
							l39.1-22.5c1-0.6,2.3-0.6,3.4,0c1,0.6,1.7,1.7,1.7,2.9v90.2c0,1.2-0.6,2.3-1.7,2.9C168,216,167.4,216.2,166.8,216.2z
							 M131.1,188.3l32.4,18.7v-78.6L131.1,147V188.3z"/>
					</g>
					<g>
						<path class="st0" d="M88.7,216.2c-0.6,0-1.2-0.1-1.7-0.4c-1-0.6-1.7-1.7-1.7-2.9v-90.2c0-1.2,0.6-2.3,1.7-2.9
							c1-0.6,2.3-0.6,3.4,0l39,22.5c1,0.6,1.7,1.7,1.7,2.9v45.1c0,1.2-0.6,2.3-1.7,2.9l-39,22.6C89.9,216,89.3,216.2,88.7,216.2z
							 M92.1,128.4V207l32.3-18.7V147L92.1,128.4z"/>
					</g>
					<g>
						<path class="st0" d="M127.7,148.5c-0.6,0-1.2-0.2-1.7-0.5c-1-0.6-1.7-1.7-1.7-2.9V100c0-1.2,0.6-2.3,1.7-2.9
							c1-0.6,2.3-0.6,3.4,0l39.1,22.6c1,0.6,1.7,1.7,1.7,2.9c0,1.2-0.6,2.3-1.7,2.9L129.4,148C128.9,148.3,128.3,148.5,127.7,148.5z
							 M131.1,105.8v33.5l29-16.7L131.1,105.8z"/>
					</g>
					<g>
						<path class="st0" d="M166.8,261.3c-0.6,0-1.2-0.2-1.7-0.4L87,215.7c-1-0.6-1.7-1.7-1.7-2.9c0-1.2,0.6-2.3,1.7-2.9l39-22.6
							c1-0.6,2.3-0.6,3.4,0l39.1,22.6c1,0.6,1.7,1.7,1.7,2.9v45.1c0,1.2-0.6,2.3-1.7,2.9C168,261.1,167.4,261.3,166.8,261.3z
							 M95.4,212.8l68,39.3v-37.4l-35.7-20.7L95.4,212.8z"/>
					</g>
					<g>
						<path class="st0" d="M166.8,126c-0.6,0-1.2-0.2-1.7-0.5L126,102.9c-1-0.6-1.7-1.7-1.7-2.9s0.6-2.3,1.7-2.9l39.1-22.6
							c1-0.6,2.3-0.6,3.4,0l39.1,22.6c1,0.6,1.7,1.7,1.7,2.9s-0.6,2.3-1.7,2.9l-39.1,22.6C168,125.8,167.4,126,166.8,126z
							 M134.4,100l32.4,18.7l32.4-18.7l-32.4-18.7L134.4,100z"/>
					</g>
					<g>
						<path class="st0" d="M166.8,216.2c-0.6,0-1.2-0.1-1.7-0.4c-1-0.6-1.7-1.7-1.7-2.9v-90.2c0-1.2,0.6-2.3,1.7-2.9
							c1-0.6,2.3-0.6,3.4,0l39.1,22.5c1,0.6,1.7,1.7,1.7,2.9v45.1c0,1.2-0.6,2.3-1.7,2.9l-39.1,22.6
							C168,216,167.4,216.2,166.8,216.2z M170.2,128.4V207l32.4-18.7V147L170.2,128.4z"/>
					</g>
					<g>
						<path class="st0" d="M245,216.2c-0.6,0-1.2-0.2-1.7-0.5l-39.1-22.6c-1-0.6-1.7-1.7-1.7-2.9v-45.1c0-1.2,0.6-2.3,1.7-2.9
							l39.1-22.5c1-0.6,2.3-0.6,3.4,0c1,0.6,1.7,1.7,1.7,2.9v90.2c0,1.2-0.6,2.3-1.7,2.9C246.2,216,245.6,216.2,245,216.2z
							 M209.3,188.3l32.4,18.7v-78.6L209.3,147V188.3z"/>
					</g>
					<g>
						<path class="st0" d="M205.9,148.5c-0.6,0-1.2-0.1-1.7-0.4l-39.1-22.5c-1-0.6-1.7-1.7-1.7-2.9c0-1.2,0.6-2.3,1.7-2.9l39.1-22.6
							c1-0.6,2.3-0.6,3.4,0c1,0.6,1.7,1.7,1.7,2.9v45.1c0,1.2-0.6,2.3-1.7,2.9C207.1,148.3,206.5,148.5,205.9,148.5z M173.5,122.6
							l29,16.7v-33.5L173.5,122.6z"/>
					</g>
					<g>
						<path class="st0" d="M166.8,261.3c-0.6,0-1.2-0.2-1.7-0.5c-1-0.6-1.7-1.7-1.7-2.9v-45.1c0-1.2,0.6-2.3,1.7-2.9l39.1-22.6
							c1-0.6,2.3-0.6,3.4,0l39.1,22.6c1,0.6,1.7,1.7,1.7,2.9c0,1.2-0.6,2.3-1.7,2.9l-78.2,45.1C168,261.1,167.4,261.3,166.8,261.3z
							 M170.2,214.7v37.4l68.1-39.3l-32.4-18.7L170.2,214.7z"/>
					</g>
					<g>
						<path class="st0" d="M205.9,148.5c-0.6,0-1.2-0.2-1.7-0.5c-1-0.6-1.7-1.7-1.7-2.9V100c0-1.2,0.6-2.3,1.7-2.9
							c1-0.6,2.3-0.6,3.4,0l39.1,22.6c1,0.6,1.7,1.7,1.7,2.9c0,1.2-0.6,2.3-1.7,2.9L207.6,148C207.1,148.3,206.5,148.5,205.9,148.5z
							 M209.3,105.8v33.5l29-16.7L209.3,105.8z"/>
					</g>
				</g>
			</g>
		</g>
	</g>
	<g>
		<g>
			<path class="st2" d="M384.4,241.7V98.8h55.2c14.7,0,27.3,2.5,37.7,7.6c10.4,5.1,18.4,12.8,24.1,23.3c5.6,10.5,8.4,24,8.4,40.5
				c0,16.4-2.8,29.9-8.4,40.4c-5.6,10.6-13.6,18.4-24.1,23.4c-10.4,5.1-23,7.6-37.7,7.6L384.4,241.7L384.4,241.7z M407.7,221.7h31.7
				c7.4,0,13.9-1,19.7-2.9c5.8-1.9,10.6-4.9,14.6-9c4-4,6.9-9.1,9-15.3c2-6.2,3-13.5,3-22v-4.4c0-8.6-1-16-3-22.2s-5-11.3-9-15.3
				s-8.8-7-14.6-9c-5.8-1.9-12.3-2.9-19.7-2.9h-31.7V221.7z"/>
			<path class="st2" d="M579.2,244.2c-11.3,0-20.7-2.1-28.2-6.1c-7.6-4.1-13.3-10.4-17.2-18.9S528,200,528,186.9
				c0-13.2,1.9-24,5.8-32.4c3.9-8.4,9.7-14.7,17.3-18.8s17.2-6.1,28.5-6.1c10.4,0,19.1,2,26.1,5.9c7,4,12.3,10,15.9,18
				c3.6,8.1,5.4,18.2,5.4,30.4v8.3h-76.9c0.3,7.8,1.5,14.3,3.5,19.5c2.1,5.2,5.2,9,9.5,11.5c4.2,2.4,9.6,3.6,16.1,3.6
				c4,0,7.6-0.5,10.8-1.6c3.2-1,5.9-2.6,8.1-4.6c2.2-2,4-4.4,5.2-7.3c1.2-2.8,1.9-6.1,1.9-9.7h21.3c0,6.5-1.1,12.3-3.3,17.3
				s-5.5,9.2-9.7,12.6c-4.2,3.4-9.3,6-15.1,7.8C592.7,243.3,586.2,244.2,579.2,244.2z M550.6,176.5h53.8c0-5.4-0.6-10-1.8-13.6
				c-1.2-3.7-2.9-6.7-5.1-9.1c-2.2-2.4-4.9-4.1-7.9-5.1c-3.1-1-6.5-1.6-10.4-1.6c-5.8,0-10.8,1-14.9,3.1c-4.1,2.1-7.3,5.3-9.5,9.7
				C552.6,164.3,551.2,169.9,550.6,176.5z"/>
			<path class="st2" d="M652.1,241.7V98.8h102.1v20h-78.8v42.3h71.3v19.8h-71.3v60.8L652.1,241.7L652.1,241.7z"/>
			<path class="st2" d="M774.3,118.8v-20H796v20H774.3z M774.3,242.1v-104H796v104H774.3z"/>
			<path class="st2" d="M864,241.7V118.8h-47.3v-20H935v20h-47.7v122.9L864,241.7L864,241.7z"/>
			<path class="st2" d="M964.6,244.2c-3.5,0-7.2-0.4-11.3-1.3c-4-0.8-7.8-2.4-11.4-4.6c-3.5-2.2-6.4-5.3-8.6-9.3
				c-2.2-4-3.3-9.1-3.3-15.5c0-7.5,1.7-13.7,5.2-18.5c3.5-4.9,8.3-8.7,14.6-11.5s13.7-4.7,22.4-5.8s18.2-1.7,28.4-1.7v-10.8
				c0-3.6-0.6-6.8-1.8-9.6s-3.3-4.9-6.5-6.5c-3.1-1.5-7.6-2.3-13.4-2.3c-5.8,0-10.4,0.7-13.6,2.2c-3.3,1.5-5.6,3.3-6.9,5.4
				c-1.3,2.2-2,4.5-2,7v3.1h-20.8c-0.1-0.7-0.2-1.4-0.2-2.1c0-0.7,0-1.5,0-2.5c0-6.5,1.8-12,5.5-16.6c3.7-4.5,8.9-7.9,15.5-10.3
				c6.7-2.4,14.4-3.5,23.1-3.5c9.4,0,17.3,1.4,23.6,4.1c6.3,2.7,11.1,6.6,14.3,11.6s4.8,11,4.8,18.1V219c0,2.6,0.7,4.5,2,5.6
				c1.3,1.1,2.9,1.7,4.7,1.7h7.5v14.6c-1.7,0.7-3.8,1.4-6.3,2.1c-2.5,0.7-5.4,1-8.8,1c-3.8,0-6.9-0.7-9.5-2s-4.7-3.2-6.3-5.6
				c-1.6-2.4-2.7-5.2-3.2-8.2h-1.2c-2.5,3.2-5.5,6-9.1,8.4c-3.5,2.4-7.6,4.3-12.2,5.6C975.4,243.6,970.3,244.2,964.6,244.2z
				 M970.6,226.3c4.3,0,8.3-0.7,12-2s6.8-3.2,9.5-5.6c2.6-2.4,4.7-5.3,6.2-8.8c1.5-3.4,2.3-7.1,2.3-11.1v-7.3
				c-9.6,0-18,0.6-25.2,1.7c-7.2,1.1-12.8,3.2-16.9,6.1c-4,3-6,7.1-6,12.4c0,3.2,0.7,5.9,2.1,8c1.4,2.2,3.5,3.8,6.3,4.9
				C963.6,225.8,966.9,226.3,970.6,226.3z"/>
			<path class="st2" d="M1051.5,241.7V91.1h21.7v150.6L1051.5,241.7L1051.5,241.7z"/>
			<path class="st2" d="M1101.1,241.7V91.1h21.7v91l43.1-50h25.6l-37.1,42.5l39.2,67.1h-25l-28.1-51.3l-17.7,17.5v33.8L1101.1,241.7
				L1101.1,241.7z"/>
			<path class="st2" d="M1246.3,244.2c-7.6,0-14.4-0.8-20.2-2.5c-5.8-1.7-10.7-4-14.6-6.9s-6.8-6.4-8.9-10.5c-2-4.1-3-8.6-3-13.6
				c0-0.7,0-1.3,0.1-1.9c0.1-0.6,0.1-1,0.1-1.5h21.5c0,0.4,0,0.8,0,1.1s0,0.7,0,1.1c0,4.3,1.2,7.7,3.5,10.3c2.4,2.6,5.5,4.4,9.5,5.4
				s8.3,1.6,13,1.6c4.2,0,8-0.5,11.6-1.6c3.5-1,6.5-2.6,8.8-4.7c2.3-2.1,3.4-4.7,3.4-7.9c0-4.2-1.5-7.4-4.4-9.6
				c-2.9-2.2-6.7-4-11.5-5.3c-4.7-1.3-9.7-2.7-14.8-4.3c-4.6-1.2-9.1-2.6-13.6-4.1s-8.6-3.4-12.2-5.7c-3.6-2.4-6.5-5.3-8.8-9
				c-2.2-3.6-3.3-8.1-3.3-13.5c0-5.1,1.1-9.7,3.3-13.5c2.2-3.9,5.3-7.2,9.3-9.8s8.7-4.7,14.2-6c5.5-1.4,11.5-2.1,18-2.1
				c6.8,0,12.8,0.7,18.1,2.2c5.3,1.5,9.8,3.5,13.4,6.1c3.7,2.6,6.5,5.8,8.4,9.5s2.9,7.6,2.9,11.8c0,0.8,0,1.7-0.1,2.6
				c-0.1,0.9-0.1,1.5-0.1,1.8h-21.3v-1.9c0-2.8-0.8-5.3-2.3-7.5s-3.9-4-7.2-5.4c-3.3-1.4-7.6-2.1-13-2.1c-3.6,0-6.8,0.3-9.6,0.9
				c-2.8,0.6-5.1,1.5-6.9,2.6s-3.2,2.4-4.1,4c-0.9,1.5-1.4,3.3-1.4,5.2c0,3.2,1.1,5.7,3.4,7.4s5.3,3.2,9.1,4.4
				c3.8,1.2,7.8,2.5,12.1,3.9c5,1.4,10.1,2.8,15.2,4.3s9.9,3.3,14.3,5.5s7.9,5.3,10.6,9.2s4.1,9.1,4.1,15.6c0,6-1.2,11.2-3.5,15.6
				c-2.4,4.4-5.7,8-9.9,10.7c-4.2,2.7-9.2,4.7-14.9,6C1259.1,243.6,1253,244.2,1246.3,244.2z"/>
		</g>
	</g>
</g>
</svg>
