<?xml version="1.0" encoding="utf-8"?>
<!-- Generator: Adobe Illustrator 27.4.0, SVG Export Plug-In . SVG Version: 6.00 Build 0)  -->
<svg version="1.1" id="katman_1" xmlns="http://www.w3.org/2000/svg" xmlns:xlink="http://www.w3.org/1999/xlink" x="0px" y="0px"
	 viewBox="0 0 192 48" style="enable-background:new 0 0 192 48;" xml:space="preserve">
<style type="text/css">
	.st0{fill:#1D1E23;}
	.st1{fill:#1977F2;}
</style>
<g>
	<g>
		<g>
			<g>
				<path class="st0" d="M65,31.4V11.9h7.5c2,0,3.7,0.3,5.1,1c1.4,0.7,2.5,1.7,3.3,3.2c0.8,1.4,1.1,3.3,1.1,5.5
					c0,2.2-0.4,4.1-1.1,5.5c-0.8,1.4-1.9,2.5-3.3,3.2c-1.4,0.7-3.1,1-5.1,1H65z M68.1,28.7h4.3c1,0,1.9-0.1,2.7-0.4
					c0.8-0.3,1.4-0.7,2-1.2c0.5-0.5,0.9-1.2,1.2-2.1c0.3-0.8,0.4-1.8,0.4-3v-0.6c0-1.2-0.1-2.2-0.4-3c-0.3-0.8-0.7-1.5-1.2-2.1
					c-0.5-0.5-1.2-1-2-1.2c-0.8-0.3-1.7-0.4-2.7-0.4h-4.3V28.7z"/>
				<path class="st0" d="M91.9,31.4c-1.5,0-2.7-0.3-3.7-0.8c-1-0.5-1.7-1.4-2.3-2.5c-0.5-1.1-0.8-2.5-0.8-4.2c0-1.7,0.3-3.1,0.8-4.2
					c0.5-1.1,1.3-1.9,2.3-2.5c1-0.5,2.2-0.8,3.7-0.8c1.4,0,2.5,0.3,3.4,0.8c0.9,0.5,1.6,1.3,2.1,2.4c0.5,1.1,0.7,2.4,0.7,4v1.1H88.1
					c0,1,0.2,1.9,0.5,2.6c0.3,0.7,0.7,1.2,1.2,1.5c0.6,0.3,1.3,0.5,2.1,0.5c0.5,0,1-0.1,1.4-0.2c0.4-0.1,0.8-0.3,1.1-0.6
					c0.3-0.3,0.5-0.6,0.7-1c0.2-0.4,0.2-0.8,0.2-1.3h2.8c0,0.9-0.1,1.6-0.4,2.3c-0.3,0.7-0.7,1.2-1.3,1.7c-0.6,0.4-1.2,0.8-2,1
					C93.7,31.3,92.8,31.4,91.9,31.4z M88.1,22.7h7c0-0.7-0.1-1.3-0.2-1.8c-0.2-0.5-0.4-0.9-0.7-1.2c-0.3-0.3-0.6-0.5-1-0.7
					c-0.4-0.1-0.9-0.2-1.4-0.2c-0.8,0-1.4,0.1-2,0.4c-0.5,0.3-1,0.7-1.2,1.3C88.4,21.1,88.2,21.8,88.1,22.7z"/>
				<path class="st0" d="M101.9,31.4V11.9h13.9v2.7h-10.7v5.8h9.7v2.7h-9.7v8.3H101.9z"/>
				<path class="st0" d="M119.4,14.8v-2.8h3v2.8H119.4z M119.4,31.4v-15h3v15H119.4z"/>
			</g>
		</g>
		<g>
			<path class="st1" d="M132,31.4V14.7h-6.4v-2.7h16.1v2.7h-6.5v16.7H132z"/>
			<path class="st1" d="M146.1,31.4c-0.5,0-0.9-0.1-1.5-0.2c-0.5-0.1-1-0.3-1.5-0.6c-0.5-0.3-0.8-0.7-1.1-1.2
				c-0.3-0.5-0.4-1.2-0.4-2c0-1,0.2-1.8,0.7-2.4c0.5-0.6,1.1-1.1,1.9-1.5c0.8-0.4,1.8-0.6,2.9-0.8c1.1-0.1,2.4-0.2,3.7-0.2v-1.4
				c0-0.5-0.1-0.9-0.2-1.3c-0.2-0.4-0.4-0.6-0.8-0.8c-0.4-0.2-1-0.3-1.8-0.3c-0.8,0-1.4,0.1-1.8,0.3c-0.4,0.2-0.7,0.4-0.9,0.7
				c-0.2,0.3-0.3,0.6-0.3,0.9V21h-2.7c0-0.1,0-0.2,0-0.3c0-0.1,0-0.2,0-0.3c0-0.9,0.2-1.6,0.7-2.2c0.5-0.6,1.2-1,2-1.3
				c0.9-0.3,1.9-0.5,3-0.5c1.2,0,2.3,0.2,3.1,0.5c0.8,0.4,1.4,0.9,1.9,1.5c0.4,0.7,0.6,1.4,0.6,2.4v7.3c0,0.3,0.1,0.6,0.3,0.7
				c0.2,0.1,0.4,0.2,0.6,0.2h1V31c-0.2,0.1-0.5,0.2-0.8,0.3c-0.3,0.1-0.7,0.1-1.1,0.1c-0.5,0-0.9-0.1-1.2-0.3
				c-0.3-0.2-0.6-0.4-0.8-0.7c-0.2-0.3-0.3-0.7-0.4-1.1h-0.2c-0.3,0.4-0.7,0.8-1.2,1.1c-0.5,0.3-1,0.6-1.6,0.7
				C147.5,31.3,146.9,31.4,146.1,31.4z M146.9,29.1c0.6,0,1.1-0.1,1.6-0.3c0.5-0.2,0.9-0.4,1.2-0.7c0.3-0.3,0.6-0.7,0.8-1.1
				c0.2-0.4,0.3-0.9,0.3-1.5v-1c-1.3,0-2.3,0.1-3.3,0.2c-0.9,0.1-1.7,0.4-2.2,0.8c-0.5,0.4-0.8,0.9-0.8,1.6c0,0.4,0.1,0.8,0.3,1
				c0.2,0.3,0.5,0.5,0.8,0.6C146,29,146.4,29.1,146.9,29.1z"/>
			<path class="st1" d="M158.2,31.4V11.9h3v19.5H158.2z"/>
			<path class="st1" d="M165.3,31.4V11.9h3v11.3l5.9-6.8h3.5l-5,5.8l5.3,9.1h-3.4l-3.8-7l-2.4,2.4v4.6H165.3z"/>
			<path class="st1" d="M184.9,31.4c-1,0-1.9-0.1-2.6-0.3c-0.8-0.2-1.4-0.5-1.9-0.9c-0.5-0.4-0.9-0.8-1.2-1.4
				c-0.3-0.5-0.4-1.1-0.4-1.8c0-0.1,0-0.2,0-0.2c0-0.1,0-0.1,0-0.2h2.8c0,0.1,0,0.1,0,0.1c0,0,0,0.1,0,0.2c0,0.6,0.2,1,0.5,1.3
				c0.3,0.3,0.7,0.6,1.2,0.7c0.5,0.1,1.1,0.2,1.7,0.2c0.5,0,1-0.1,1.5-0.2c0.5-0.1,0.8-0.3,1.1-0.6c0.3-0.3,0.4-0.6,0.4-1
				c0-0.5-0.2-1-0.6-1.3c-0.4-0.3-0.9-0.5-1.5-0.7c-0.6-0.2-1.3-0.4-1.9-0.6c-0.6-0.2-1.2-0.3-1.8-0.5c-0.6-0.2-1.1-0.4-1.6-0.7
				c-0.5-0.3-0.9-0.7-1.1-1.2c-0.3-0.5-0.4-1.1-0.4-1.8c0-0.7,0.1-1.3,0.4-1.8c0.3-0.5,0.7-0.9,1.2-1.3c0.5-0.3,1.1-0.6,1.9-0.8
				c0.7-0.2,1.5-0.3,2.4-0.3c0.9,0,1.7,0.1,2.4,0.3c0.7,0.2,1.3,0.5,1.8,0.8c0.5,0.3,0.8,0.8,1.1,1.2c0.3,0.5,0.4,1,0.4,1.5
				c0,0.1,0,0.2,0,0.3c0,0.1,0,0.2,0,0.2h-2.8v-0.2c0-0.4-0.1-0.7-0.3-1c-0.2-0.3-0.5-0.5-0.9-0.7c-0.4-0.2-1-0.3-1.7-0.3
				c-0.5,0-0.9,0-1.3,0.1c-0.4,0.1-0.7,0.2-0.9,0.3c-0.2,0.1-0.4,0.3-0.5,0.5c-0.1,0.2-0.2,0.4-0.2,0.7c0,0.4,0.1,0.7,0.4,1
				c0.3,0.2,0.7,0.4,1.2,0.6c0.5,0.2,1,0.3,1.6,0.5c0.7,0.2,1.3,0.4,2,0.6c0.7,0.2,1.3,0.4,1.9,0.7c0.6,0.3,1,0.7,1.4,1.2
				c0.4,0.5,0.5,1.2,0.5,2c0,0.8-0.2,1.5-0.5,2c-0.3,0.6-0.7,1-1.3,1.4c-0.6,0.4-1.2,0.6-1.9,0.8C186.5,31.3,185.7,31.4,184.9,31.4z
				"/>
		</g>
	</g>
	<g>
		<g>
			<path class="st1" d="M56.6,21.7c0-6.4-5.2-11.6-11.6-11.6H33.4h0c-6.1,0-11.2,4.8-11.5,10.8c0,0.2,0,0.4,0,0.6c0,0,0,0.1,0,0.1
				c0,0,0,0,0,0c0,0.1,0,0.2,0,0.2c0,0,0,0.1,0,0.1c0,0,0,0,0,0c0,0.1,0,0.1,0,0.2c0.1,0.2,0.1,0.4,0.3,0.6c0.1,0.1,0.2,0.2,0.3,0.4
				c0,0,0,0.1,0.1,0.1c0.1,0.1,0.1,0.1,0.2,0.2c0.2,0.1,0.4,0.3,0.6,0.3c0.1,0,0.2,0.1,0.3,0.1c0,0,0.1,0,0.1,0c0.2,0,0.3,0,0.5,0
				c1.2,0,2.3-1,2.3-2.2c0,0,0-0.1,0-0.1c0,0,0,0,0,0c0-3.8,3.3-6.9,7.1-6.9h2.2h6.9h1.5H45c3.8,0,6.9,3.1,6.9,6.9s-3.1,6.9-6.9,6.9
				h-6.9c-1.3,0-2.3,1-2.3,2.3s1,2.3,2.3,2.3H45c0.5,0,1.1,0,1.6-0.1l4.5,4.6c0.3,0.3,0.8,0.1,0.8-0.3v-6.5l0,0
				C54.8,28.8,56.6,25.5,56.6,21.7z"/>
			<path class="st1" d="M35.7,21.5C35.7,21.4,35.7,21.4,35.7,21.5c0-0.1,0-0.1,0-0.1c0-0.1,0-0.1,0-0.2c-0.1-0.2-0.1-0.4-0.3-0.6
				c-0.1-0.1-0.2-0.2-0.3-0.4c0,0,0-0.1-0.1-0.1c-0.1-0.1-0.2-0.2-0.3-0.2c-0.1,0-0.1-0.1-0.2-0.1c-0.1,0-0.1-0.1-0.2-0.1
				c-0.1-0.1-0.3-0.1-0.5-0.2c-0.1,0-0.2,0-0.2,0c-0.1,0-0.2,0-0.4,0h0c-1.3,0-2.3,1-2.3,2.3c0,0,0,0,0,0c0,3.8-3.3,6.9-7.1,6.9
				H12.6c-3.8,0-6.9-3.1-6.9-6.9s3.1-6.9,6.9-6.9h6.9c1.3,0,2.3-1,2.3-2.3s-1-2.3-2.3-2.3h-6.9C6.2,10.1,1,15.3,1,21.7
				s5.2,11.6,11.6,11.6h11.6c6.1,0,11.2-4.8,11.5-10.8c0-0.2,0-0.4,0-0.6c0,0,0-0.1,0-0.1C35.7,21.6,35.7,21.5,35.7,21.5z"/>
		</g>
	</g>
</g>
<g>
</g>
<g>
</g>
<g>
</g>
<g>
</g>
<g>
</g>
<g>
</g>
<g>
</g>
<g>
</g>
<g>
</g>
<g>
</g>
<g>
</g>
<g>
</g>
<g>
</g>
<g>
</g>
<g>
</g>
</svg>
