<?xml version="1.0" encoding="utf-8"?>
<!-- Generator: Adobe Illustrator 27.0.0, SVG Export Plug-In . SVG Version: 6.00 Build 0)  -->
<svg version="1.1" id="Layer_1" xmlns="http://www.w3.org/2000/svg" xmlns:xlink="http://www.w3.org/1999/xlink" x="0px" y="0px"
	 viewBox="0 0 1305.9 337.1" style="enable-background:new 0 0 1305.9 337.1;" xml:space="preserve">
<style type="text/css">
	.st0{display:none;fill:#1C1E24;}
	.st1{fill:#1FFF8F;}
	.st2{fill:#1C1E24;}
	
		.st3{fill-rule:evenodd;clip-rule:evenodd;fill:none;stroke:#1FFF8F;stroke-width:6.7087;stroke-linecap:round;stroke-linejoin:round;stroke-miterlimit:10;}
</style>
<rect x="-582.6" y="-150.8" class="st0" width="1961.8" height="609.9"/>
<g>
	<g>
		<path class="st1" d="M264.5,321.8H69.1c-31.1,0-56.4-25.2-56.4-56.4V69.9c0-31.1,25.2-56.4,56.4-56.4h195.5
			c31.1,0,56.4,25.2,56.4,56.4v195.5C320.9,296.6,295.7,321.8,264.5,321.8z"/>
		<g>
			<path class="st2" d="M61.4,240.6l-3-4.8c-12.8-20.4-19.6-43.9-19.6-68.1c0-70.6,57.5-128,128.1-128c34.2,0,66.4,13.3,90.6,37.5
				c24.2,24.2,37.5,56.4,37.5,90.6c0,70.6-57.5,128-128.1,128h0c-23,0-45.5-6.2-65.2-17.9l-4.7-2.8l-48.5,12.7L61.4,240.6z"/>
			<g>
				<g>
					<polygon class="st3" points="127.7,145.1 127.7,100 88.7,122.6 					"/>
					<polygon class="st3" points="166.8,122.6 127.7,145.1 127.7,190.2 166.8,212.8 					"/>
					<polygon class="st3" points="88.7,122.6 127.7,145.1 127.7,190.2 88.7,212.8 					"/>
					<polygon class="st3" points="127.7,100 166.8,122.6 127.7,145.1 					"/>
					<polygon class="st3" points="88.7,212.8 127.7,190.2 166.8,212.8 166.8,257.9 					"/>
					<polygon class="st3" points="205.9,100 166.8,122.6 127.7,100 166.8,77.4 					"/>
					<polygon class="st3" points="166.8,122.6 205.9,145.1 205.9,190.2 166.8,212.8 					"/>
					<polygon class="st3" points="245,122.6 205.9,145.1 205.9,190.2 245,212.8 					"/>
					<polygon class="st3" points="205.9,100 166.8,122.6 205.9,145.1 					"/>
					<polygon class="st3" points="245,212.8 205.9,190.2 166.8,212.8 166.8,257.9 					"/>
					<polygon class="st3" points="205.9,145.1 205.9,100 245,122.6 					"/>
				</g>
			</g>
		</g>
	</g>
	<g>
		<g>
			<g>
				<path class="st2" d="M384.4,241.7V98.8h55.2c14.7,0,27.3,2.5,37.7,7.6c10.4,5.1,18.4,12.8,24.1,23.3c5.6,10.5,8.4,24,8.4,40.5
					c0,16.4-2.8,29.9-8.4,40.4c-5.6,10.6-13.6,18.4-24.1,23.4c-10.4,5.1-23,7.6-37.7,7.6H384.4z M407.7,221.7h31.7
					c7.4,0,13.9-1,19.7-2.9c5.8-1.9,10.6-4.9,14.6-9c4-4,6.9-9.1,9-15.3c2-6.2,3-13.5,3-22v-4.4c0-8.6-1-16-3-22.2
					c-2-6.2-5-11.3-9-15.3c-4-4-8.8-7-14.6-9c-5.8-1.9-12.3-2.9-19.7-2.9h-31.7V221.7z"/>
				<path class="st2" d="M579.2,244.2c-11.3,0-20.7-2.1-28.2-6.1c-7.6-4.1-13.3-10.4-17.2-18.9c-3.9-8.5-5.8-19.2-5.8-32.3
					c0-13.2,1.9-24,5.8-32.4c3.9-8.4,9.7-14.7,17.3-18.8c7.6-4.1,17.2-6.1,28.5-6.1c10.4,0,19.1,2,26.1,5.9c7,4,12.3,10,15.9,18
					c3.6,8.1,5.4,18.2,5.4,30.4v8.3h-76.9c0.3,7.8,1.5,14.3,3.5,19.5c2.1,5.2,5.2,9,9.5,11.5c4.2,2.4,9.6,3.6,16.1,3.6
					c4,0,7.6-0.5,10.8-1.6c3.2-1,5.9-2.6,8.1-4.6c2.2-2,4-4.4,5.2-7.3c1.2-2.8,1.9-6.1,1.9-9.7h21.3c0,6.5-1.1,12.3-3.3,17.3
					c-2.2,5-5.5,9.2-9.7,12.6c-4.2,3.4-9.3,6-15.1,7.8C592.7,243.3,586.2,244.2,579.2,244.2z M550.6,176.5h53.8
					c0-5.4-0.6-10-1.8-13.6c-1.2-3.7-2.9-6.7-5.1-9.1c-2.2-2.4-4.9-4.1-7.9-5.1c-3.1-1-6.5-1.6-10.4-1.6c-5.8,0-10.8,1-14.9,3.1
					c-4.1,2.1-7.3,5.3-9.5,9.7C552.6,164.3,551.2,169.9,550.6,176.5z"/>
				<path class="st2" d="M652.1,241.7V98.8h102.1v20h-78.8v42.3h71.3v19.8h-71.3v60.8H652.1z"/>
				<path class="st2" d="M774.3,118.8v-20H796v20H774.3z M774.3,242.1v-104H796v104H774.3z"/>
				<path class="st2" d="M864,241.7V118.8h-47.3v-20H935v20h-47.7v122.9H864z"/>
				<path class="st2" d="M964.6,244.2c-3.5,0-7.2-0.4-11.3-1.3c-4-0.8-7.8-2.4-11.4-4.6c-3.5-2.2-6.4-5.3-8.6-9.3
					c-2.2-4-3.3-9.1-3.3-15.5c0-7.5,1.7-13.7,5.2-18.5c3.5-4.9,8.3-8.7,14.6-11.5c6.3-2.8,13.7-4.7,22.4-5.8
					c8.7-1.1,18.2-1.7,28.4-1.7v-10.8c0-3.6-0.6-6.8-1.8-9.6c-1.2-2.8-3.3-4.9-6.5-6.5c-3.1-1.5-7.6-2.3-13.4-2.3
					c-5.8,0-10.4,0.7-13.6,2.2c-3.3,1.5-5.6,3.3-6.9,5.4c-1.3,2.2-2,4.5-2,7v3.1h-20.8c-0.1-0.7-0.2-1.4-0.2-2.1c0-0.7,0-1.5,0-2.5
					c0-6.5,1.8-12,5.5-16.6c3.7-4.5,8.9-7.9,15.5-10.3c6.7-2.4,14.4-3.5,23.1-3.5c9.4,0,17.3,1.4,23.6,4.1
					c6.3,2.7,11.1,6.6,14.3,11.6c3.2,5,4.8,11,4.8,18.1V219c0,2.6,0.7,4.5,2,5.6c1.3,1.1,2.9,1.7,4.7,1.7h7.5v14.6
					c-1.7,0.7-3.8,1.4-6.3,2.1c-2.5,0.7-5.4,1-8.8,1c-3.8,0-6.9-0.7-9.5-2c-2.6-1.3-4.7-3.2-6.3-5.6c-1.6-2.4-2.7-5.2-3.2-8.2h-1.2
					c-2.5,3.2-5.5,6-9.1,8.4c-3.5,2.4-7.6,4.3-12.2,5.6C975.4,243.6,970.3,244.2,964.6,244.2z M970.6,226.3c4.3,0,8.3-0.7,12-2
					c3.7-1.3,6.8-3.2,9.5-5.6c2.6-2.4,4.7-5.3,6.2-8.8c1.5-3.4,2.3-7.1,2.3-11.1v-7.3c-9.6,0-18,0.6-25.2,1.7
					c-7.2,1.1-12.8,3.2-16.9,6.1c-4,3-6,7.1-6,12.4c0,3.2,0.7,5.9,2.1,8c1.4,2.2,3.5,3.8,6.3,4.9
					C963.6,225.8,966.9,226.3,970.6,226.3z"/>
				<path class="st2" d="M1051.5,241.7V91.1h21.7v150.6H1051.5z"/>
				<path class="st2" d="M1101.1,241.7V91.1h21.7v91l43.1-50h25.6l-37.1,42.5l39.2,67.1h-25l-28.1-51.3l-17.7,17.5v33.8H1101.1z"/>
				<path class="st2" d="M1246.3,244.2c-7.6,0-14.4-0.8-20.2-2.5c-5.8-1.7-10.7-4-14.6-6.9c-3.9-2.9-6.8-6.4-8.9-10.5
					c-2-4.1-3-8.6-3-13.6c0-0.7,0-1.3,0.1-1.9c0.1-0.6,0.1-1,0.1-1.5h21.5c0,0.4,0,0.8,0,1.1c0,0.3,0,0.7,0,1.1
					c0,4.3,1.2,7.7,3.5,10.3c2.4,2.6,5.5,4.4,9.5,5.4c4,1,8.3,1.6,13,1.6c4.2,0,8-0.5,11.6-1.6c3.5-1,6.5-2.6,8.8-4.7
					c2.3-2.1,3.4-4.7,3.4-7.9c0-4.2-1.5-7.4-4.4-9.6c-2.9-2.2-6.7-4-11.5-5.3c-4.7-1.3-9.7-2.7-14.8-4.3c-4.6-1.2-9.1-2.6-13.6-4.1
					c-4.5-1.5-8.6-3.4-12.2-5.7c-3.6-2.4-6.5-5.3-8.8-9c-2.2-3.6-3.3-8.1-3.3-13.5c0-5.1,1.1-9.7,3.3-13.5c2.2-3.9,5.3-7.2,9.3-9.8
					c4-2.6,8.7-4.7,14.2-6c5.5-1.4,11.5-2.1,18-2.1c6.8,0,12.8,0.7,18.1,2.2c5.3,1.5,9.8,3.5,13.4,6.1c3.7,2.6,6.5,5.8,8.4,9.5
					c1.9,3.7,2.9,7.6,2.9,11.8c0,0.8,0,1.7-0.1,2.6c-0.1,0.9-0.1,1.5-0.1,1.8h-21.3v-1.9c0-2.8-0.8-5.3-2.3-7.5
					c-1.5-2.2-3.9-4-7.2-5.4c-3.3-1.4-7.6-2.1-13-2.1c-3.6,0-6.8,0.3-9.6,0.9c-2.8,0.6-5.1,1.5-6.9,2.6c-1.8,1.1-3.2,2.4-4.1,4
					c-0.9,1.5-1.4,3.3-1.4,5.2c0,3.2,1.1,5.7,3.4,7.4c2.3,1.7,5.3,3.2,9.1,4.4c3.8,1.2,7.8,2.5,12.1,3.9c5,1.4,10.1,2.8,15.2,4.3
					c5.1,1.5,9.9,3.3,14.3,5.5c4.4,2.2,7.9,5.3,10.6,9.2c2.7,3.9,4.1,9.1,4.1,15.6c0,6-1.2,11.2-3.5,15.6c-2.4,4.4-5.7,8-9.9,10.7
					c-4.2,2.7-9.2,4.7-14.9,6C1259.1,243.6,1253,244.2,1246.3,244.2z"/>
			</g>
		</g>
	</g>
</g>
</svg>
